<mxfile host="app.diagrams.net" agent="Mozilla/5.0 (Windows NT 10.0; Win64; x64) AppleWebKit/537.36 (KHTML, like Gecko) Chrome/131.0.0.0 Safari/537.36 Edg/131.0.0.0" version="25.0.3">
  <diagram name="Page-1" id="caKFLX1dbj2YCLR3d2B2">
    <mxGraphModel dx="2339" dy="1907" grid="1" gridSize="10" guides="1" tooltips="1" connect="1" arrows="1" fold="1" page="1" pageScale="1" pageWidth="850" pageHeight="1100" math="0" shadow="0">
      <root>
        <mxCell id="0" />
        <mxCell id="1" parent="0" />
        <mxCell id="IdQ9lC90_RBVGnZ-zshO-1" value="" style="edgeStyle=orthogonalEdgeStyle;rounded=0;orthogonalLoop=1;jettySize=auto;html=1;" edge="1" parent="1" source="IdQ9lC90_RBVGnZ-zshO-2">
          <mxGeometry relative="1" as="geometry">
            <mxPoint x="-680.87" y="-940" as="targetPoint" />
          </mxGeometry>
        </mxCell>
        <mxCell id="IdQ9lC90_RBVGnZ-zshO-2" value="&lt;font data-font-src=&quot;https://fonts.googleapis.com/css?family=Sarabun&quot; face=&quot;Sarabun&quot;&gt;Start&lt;/font&gt;" style="ellipse;whiteSpace=wrap;html=1;" vertex="1" parent="1">
          <mxGeometry x="-745.8700000000001" y="-1010" width="130" height="30" as="geometry" />
        </mxCell>
        <mxCell id="IdQ9lC90_RBVGnZ-zshO-3" value="" style="edgeStyle=orthogonalEdgeStyle;rounded=0;orthogonalLoop=1;jettySize=auto;html=1;" edge="1" parent="1" source="IdQ9lC90_RBVGnZ-zshO-4" target="IdQ9lC90_RBVGnZ-zshO-6">
          <mxGeometry relative="1" as="geometry" />
        </mxCell>
        <mxCell id="IdQ9lC90_RBVGnZ-zshO-4" value="กำหนดตัวแปร&amp;nbsp;RealData&lt;div&gt;7, 4, 1, 8, 3, 2&lt;/div&gt;" style="rounded=0;whiteSpace=wrap;html=1;" vertex="1" parent="1">
          <mxGeometry x="-755.87" y="-940" width="150" height="40" as="geometry" />
        </mxCell>
        <mxCell id="IdQ9lC90_RBVGnZ-zshO-5" value="" style="edgeStyle=orthogonalEdgeStyle;rounded=0;orthogonalLoop=1;jettySize=auto;html=1;" edge="1" parent="1" source="IdQ9lC90_RBVGnZ-zshO-6" target="IdQ9lC90_RBVGnZ-zshO-8">
          <mxGeometry relative="1" as="geometry" />
        </mxCell>
        <mxCell id="IdQ9lC90_RBVGnZ-zshO-6" value="SequentialSearch&lt;div&gt;(RealData, 6, 8)&lt;/div&gt;" style="shape=process;whiteSpace=wrap;html=1;backgroundOutline=1;" vertex="1" parent="1">
          <mxGeometry x="-748.37" y="-870" width="135" height="60" as="geometry" />
        </mxCell>
        <mxCell id="IdQ9lC90_RBVGnZ-zshO-7" value="" style="edgeStyle=orthogonalEdgeStyle;rounded=0;orthogonalLoop=1;jettySize=auto;html=1;" edge="1" parent="1" source="IdQ9lC90_RBVGnZ-zshO-8" target="IdQ9lC90_RBVGnZ-zshO-25">
          <mxGeometry relative="1" as="geometry" />
        </mxCell>
        <mxCell id="IdQ9lC90_RBVGnZ-zshO-8" value="ปริ้นค่า&amp;nbsp;SequentialSearch" style="shape=parallelogram;perimeter=parallelogramPerimeter;whiteSpace=wrap;html=1;fixedSize=1;" vertex="1" parent="1">
          <mxGeometry x="-774" y="-770" width="186.25" height="40" as="geometry" />
        </mxCell>
        <mxCell id="IdQ9lC90_RBVGnZ-zshO-9" value="" style="edgeStyle=orthogonalEdgeStyle;rounded=0;orthogonalLoop=1;jettySize=auto;html=1;" edge="1" parent="1" source="IdQ9lC90_RBVGnZ-zshO-10" target="IdQ9lC90_RBVGnZ-zshO-12">
          <mxGeometry relative="1" as="geometry" />
        </mxCell>
        <mxCell id="IdQ9lC90_RBVGnZ-zshO-10" value="&lt;div&gt;Start&lt;/div&gt;SequentialSearch" style="shape=process;whiteSpace=wrap;html=1;backgroundOutline=1;" vertex="1" parent="1">
          <mxGeometry x="-438.37" y="-1000" width="135" height="60" as="geometry" />
        </mxCell>
        <mxCell id="IdQ9lC90_RBVGnZ-zshO-11" style="edgeStyle=orthogonalEdgeStyle;rounded=0;orthogonalLoop=1;jettySize=auto;html=1;entryX=0.5;entryY=0;entryDx=0;entryDy=0;" edge="1" parent="1" source="IdQ9lC90_RBVGnZ-zshO-12" target="IdQ9lC90_RBVGnZ-zshO-21">
          <mxGeometry relative="1" as="geometry" />
        </mxCell>
        <mxCell id="IdQ9lC90_RBVGnZ-zshO-12" value="กำหนดตัวแปร Output" style="rounded=0;whiteSpace=wrap;html=1;" vertex="1" parent="1">
          <mxGeometry x="-445.87" y="-910" width="150" height="40" as="geometry" />
        </mxCell>
        <mxCell id="IdQ9lC90_RBVGnZ-zshO-13" value="" style="edgeStyle=orthogonalEdgeStyle;rounded=0;orthogonalLoop=1;jettySize=auto;html=1;" edge="1" parent="1" source="IdQ9lC90_RBVGnZ-zshO-15" target="IdQ9lC90_RBVGnZ-zshO-19">
          <mxGeometry relative="1" as="geometry" />
        </mxCell>
        <mxCell id="IdQ9lC90_RBVGnZ-zshO-14" value="" style="edgeStyle=orthogonalEdgeStyle;rounded=0;orthogonalLoop=1;jettySize=auto;html=1;" edge="1" parent="1" source="IdQ9lC90_RBVGnZ-zshO-15" target="IdQ9lC90_RBVGnZ-zshO-24">
          <mxGeometry relative="1" as="geometry" />
        </mxCell>
        <mxCell id="IdQ9lC90_RBVGnZ-zshO-15" value="RealData = 8 หรือไม่" style="rhombus;whiteSpace=wrap;html=1;" vertex="1" parent="1">
          <mxGeometry x="-438.78999999999996" y="-800" width="135.84" height="100" as="geometry" />
        </mxCell>
        <mxCell id="IdQ9lC90_RBVGnZ-zshO-16" value="" style="edgeStyle=orthogonalEdgeStyle;rounded=0;orthogonalLoop=1;jettySize=auto;html=1;" edge="1" parent="1" source="IdQ9lC90_RBVGnZ-zshO-17" target="IdQ9lC90_RBVGnZ-zshO-22">
          <mxGeometry relative="1" as="geometry" />
        </mxCell>
        <mxCell id="IdQ9lC90_RBVGnZ-zshO-17" value="ส่งค่าออกจาก&lt;div&gt;SequentialSearch&lt;/div&gt;" style="rounded=0;whiteSpace=wrap;html=1;" vertex="1" parent="1">
          <mxGeometry x="-225.87" y="-690" width="150" height="40" as="geometry" />
        </mxCell>
        <mxCell id="IdQ9lC90_RBVGnZ-zshO-18" style="edgeStyle=orthogonalEdgeStyle;rounded=0;orthogonalLoop=1;jettySize=auto;html=1;entryX=0;entryY=0.5;entryDx=0;entryDy=0;" edge="1" parent="1" source="IdQ9lC90_RBVGnZ-zshO-19" target="IdQ9lC90_RBVGnZ-zshO-21">
          <mxGeometry relative="1" as="geometry">
            <Array as="points">
              <mxPoint x="-485.87" y="-610" />
              <mxPoint x="-485.87" y="-840" />
            </Array>
          </mxGeometry>
        </mxCell>
        <mxCell id="IdQ9lC90_RBVGnZ-zshO-19" value="เพิ่ม i&amp;nbsp;" style="rounded=0;whiteSpace=wrap;html=1;" vertex="1" parent="1">
          <mxGeometry x="-445.87" y="-630" width="150" height="40" as="geometry" />
        </mxCell>
        <mxCell id="IdQ9lC90_RBVGnZ-zshO-20" value="" style="edgeStyle=orthogonalEdgeStyle;rounded=0;orthogonalLoop=1;jettySize=auto;html=1;" edge="1" parent="1" source="IdQ9lC90_RBVGnZ-zshO-21" target="IdQ9lC90_RBVGnZ-zshO-15">
          <mxGeometry relative="1" as="geometry" />
        </mxCell>
        <mxCell id="IdQ9lC90_RBVGnZ-zshO-21" value="" style="ellipse;whiteSpace=wrap;html=1;aspect=fixed;" vertex="1" parent="1">
          <mxGeometry x="-380.87" y="-850" width="20" height="20" as="geometry" />
        </mxCell>
        <mxCell id="IdQ9lC90_RBVGnZ-zshO-22" value="&lt;div&gt;End&lt;/div&gt;SequentialSearch" style="shape=process;whiteSpace=wrap;html=1;backgroundOutline=1;" vertex="1" parent="1">
          <mxGeometry x="-218.37" y="-610" width="135" height="60" as="geometry" />
        </mxCell>
        <mxCell id="IdQ9lC90_RBVGnZ-zshO-23" style="edgeStyle=orthogonalEdgeStyle;rounded=0;orthogonalLoop=1;jettySize=auto;html=1;entryX=0.5;entryY=0;entryDx=0;entryDy=0;" edge="1" parent="1" source="IdQ9lC90_RBVGnZ-zshO-24" target="IdQ9lC90_RBVGnZ-zshO-17">
          <mxGeometry relative="1" as="geometry" />
        </mxCell>
        <mxCell id="IdQ9lC90_RBVGnZ-zshO-24" value="Break" style="rounded=0;whiteSpace=wrap;html=1;" vertex="1" parent="1">
          <mxGeometry x="-225.87" y="-770" width="150" height="40" as="geometry" />
        </mxCell>
        <mxCell id="IdQ9lC90_RBVGnZ-zshO-25" value="&lt;font data-font-src=&quot;https://fonts.googleapis.com/css?family=Sarabun&quot; face=&quot;Sarabun&quot;&gt;End&lt;/font&gt;" style="ellipse;whiteSpace=wrap;html=1;" vertex="1" parent="1">
          <mxGeometry x="-745.8800000000001" y="-690" width="130" height="30" as="geometry" />
        </mxCell>
      </root>
    </mxGraphModel>
  </diagram>
</mxfile>
